<svg width="17" height="15" viewBox="0 0 17 15" fill="none" xmlns="http://www.w3.org/2000/svg">
<path d="M8.18361 14.3571C7.86776 14.3571 7.61218 14.1015 7.61218 13.7857V1.21425C7.61218 0.898682 7.86776 0.642822 8.18361 0.642822C8.49946 0.642822 8.75504 0.898682 8.75504 1.21425V13.7857C8.75504 14.1015 8.49946 14.3571 8.18361 14.3571Z" fill="#D8D8D8"/>
<path d="M5.70754 13.2142C5.39169 13.2142 5.13611 12.9586 5.13611 12.6428V2.35707C5.13611 2.0415 5.39169 1.78564 5.70754 1.78564C6.02339 1.78564 6.27897 2.0415 6.27897 2.35707V12.6428C6.27897 12.9586 6.02339 13.2142 5.70754 13.2142Z" fill="#D8D8D8"/>
<path d="M3.23097 12.0713C2.91513 12.0713 2.65955 11.8157 2.65955 11.4999V3.4999C2.65955 3.18433 2.91513 2.92847 3.23097 2.92847C3.54682 2.92847 3.8024 3.18433 3.8024 3.4999V11.4999C3.8024 11.8157 3.54682 12.0713 3.23097 12.0713Z" fill="#D8D8D8"/>
<path d="M0.755022 10.3571C0.439174 10.3571 0.183594 10.1015 0.183594 9.78568V5.21425C0.183594 4.89868 0.439174 4.64282 0.755022 4.64282C1.07087 4.64282 1.32645 4.89868 1.32645 5.21425V9.78568C1.32645 10.1015 1.07087 10.3571 0.755022 10.3571Z" fill="#D8D8D8"/>
<path d="M15.6122 10.3571C15.2964 10.3571 15.0408 10.1015 15.0408 9.78568V5.21425C15.0408 4.89868 15.2964 4.64282 15.6122 4.64282C15.928 4.64282 16.1836 4.89868 16.1836 5.21425V9.78568C16.1836 10.1015 15.928 10.3571 15.6122 10.3571Z" fill="#D8D8D8"/>
<path d="M13.1361 12.0713C12.8203 12.0713 12.5647 11.8157 12.5647 11.4999V3.4999C12.5647 3.18433 12.8203 2.92847 13.1361 2.92847C13.452 2.92847 13.7076 3.18433 13.7076 3.4999V11.4999C13.7076 11.8157 13.452 12.0713 13.1361 12.0713Z" fill="#D8D8D8"/>
<path d="M10.6596 13.2142C10.3437 13.2142 10.0881 12.9586 10.0881 12.6428V2.35707C10.0881 2.0415 10.3437 1.78564 10.6596 1.78564C10.9754 1.78564 11.231 2.0415 11.231 2.35707V12.6428C11.231 12.9586 10.9754 13.2142 10.6596 13.2142Z" fill="#D8D8D8"/>
</svg>
