<svg width="17" height="13" viewBox="0 0 17 13" fill="none" xmlns="http://www.w3.org/2000/svg">
<path d="M15.9375 2.25H1.0625C0.780707 2.25 0.510457 2.13806 0.311199 1.9388C0.111942 1.73954 0 1.46929 0 1.1875C0 0.905707 0.111942 0.635457 0.311199 0.436199C0.510457 0.236942 0.780707 0.125 1.0625 0.125H15.9375C16.2193 0.125 16.4895 0.236942 16.6888 0.436199C16.8881 0.635457 17 0.905707 17 1.1875C17 1.46929 16.8881 1.73954 16.6888 1.9388C16.4895 2.13806 16.2193 2.25 15.9375 2.25Z" fill="white"/>
<path d="M15.9375 7.5625H1.0625C0.780707 7.5625 0.510457 7.45056 0.311199 7.2513C0.111942 7.05204 0 6.78179 0 6.5C0 6.21821 0.111942 5.94796 0.311199 5.7487C0.510457 5.54944 0.780707 5.4375 1.0625 5.4375H15.9375C16.2193 5.4375 16.4895 5.54944 16.6888 5.7487C16.8881 5.94796 17 6.21821 17 6.5C17 6.78179 16.8881 7.05204 16.6888 7.2513C16.4895 7.45056 16.2193 7.5625 15.9375 7.5625Z" fill="white"/>
<path d="M15.9375 12.875H1.0625C0.780707 12.875 0.510457 12.7631 0.311199 12.5638C0.111942 12.3645 0 12.0943 0 11.8125C0 11.5307 0.111942 11.2605 0.311199 11.0612C0.510457 10.8619 0.780707 10.75 1.0625 10.75H15.9375C16.2193 10.75 16.4895 10.8619 16.6888 11.0612C16.8881 11.2605 17 11.5307 17 11.8125C17 12.0943 16.8881 12.3645 16.6888 12.5638C16.4895 12.7631 16.2193 12.875 15.9375 12.875Z" fill="white"/>
</svg>
