<svg width="17" height="17" viewBox="0 0 17 17" fill="none" xmlns="http://www.w3.org/2000/svg">
<path d="M3.33743 16.5C2.67739 16.5001 2.03216 16.3044 1.48332 15.9378C0.934492 15.5711 0.506715 15.05 0.254094 14.4402C0.00147291 13.8304 -0.0646451 13.1594 0.064102 12.512C0.192849 11.8647 0.510678 11.27 0.977394 10.8033C1.44411 10.3366 2.03875 10.0188 2.6861 9.89003C3.33346 9.76128 4.00446 9.8274 4.61424 10.08C5.22401 10.3326 5.74518 10.7604 6.11183 11.3093C6.47848 11.8581 6.67413 12.5033 6.67405 13.1634C6.67299 14.048 6.32112 14.896 5.69561 15.5216C5.0701 16.1471 4.22203 16.4989 3.33743 16.5ZM3.33743 11.0279C2.91505 11.0278 2.50213 11.153 2.1509 11.3876C1.79966 11.6222 1.52589 11.9557 1.36419 12.3459C1.2025 12.7361 1.16015 13.1655 1.24251 13.5797C1.32486 13.994 1.52822 14.3746 1.82686 14.6733C2.1255 14.972 2.50601 15.1754 2.92026 15.2578C3.33452 15.3402 3.76392 15.298 4.15416 15.1364C4.54439 14.9747 4.87794 14.701 5.11261 14.3498C5.34728 13.9986 5.47253 13.5857 5.47253 13.1634C5.47189 12.5973 5.24676 12.0545 4.8465 11.6542C4.44624 11.2538 3.90353 11.0286 3.33743 11.0279Z" fill="#D8D8D8"/>
<path d="M12.8467 14.2971C12.1867 14.2972 11.5415 14.1015 10.9926 13.7349C10.4438 13.3683 10.016 12.8471 9.76341 12.2374C9.51078 11.6276 9.44464 10.9566 9.57335 10.3093C9.70206 9.66195 10.0199 9.06731 10.4865 8.60058C10.9532 8.13385 11.5478 7.81599 12.1951 7.6872C12.8425 7.55841 13.5135 7.62447 14.1232 7.87703C14.733 8.12959 15.2542 8.5573 15.6209 9.10608C15.9876 9.65486 16.1833 10.3001 16.1833 10.9601C16.1824 11.8447 15.8305 12.6929 15.205 13.3185C14.5795 13.9441 13.7314 14.296 12.8467 14.2971ZM12.8467 8.82497C12.4243 8.82489 12.0114 8.95008 11.6601 9.1847C11.3089 9.41932 11.0351 9.75284 10.8734 10.1431C10.7118 10.5333 10.6694 10.9627 10.7518 11.377C10.8342 11.7913 11.0376 12.1718 11.3363 12.4705C11.635 12.7692 12.0155 12.9726 12.4298 13.055C12.8441 13.1374 13.2735 13.095 13.6637 12.9333C14.0539 12.7717 14.3875 12.4979 14.6221 12.1466C14.8567 11.7954 14.9819 11.3825 14.9818 10.9601C14.9812 10.394 14.756 9.8513 14.3557 9.45103C13.9555 9.05076 13.4128 8.82561 12.8467 8.82497Z" fill="#D8D8D8"/>
<path d="M6.07329 13.764C5.91396 13.764 5.76116 13.7007 5.64849 13.588C5.53583 13.4754 5.47253 13.3226 5.47253 13.1632V3.25508C5.47254 3.11879 5.51888 2.98655 5.60396 2.88007C5.68904 2.77359 5.80779 2.69921 5.94073 2.66914L15.45 0.514809C15.5379 0.494915 15.6292 0.495067 15.7171 0.515253C15.8049 0.535439 15.8871 0.575143 15.9575 0.63142C16.028 0.687698 16.0848 0.759106 16.1239 0.840351C16.163 0.921597 16.1833 1.0106 16.1833 1.10075V10.96C16.1833 11.1194 16.12 11.2722 16.0073 11.3848C15.8947 11.4975 15.7419 11.5608 15.5825 11.5608C15.4232 11.5608 15.2704 11.4975 15.1577 11.3848C15.0451 11.2722 14.9818 11.1194 14.9818 10.96V1.8529L6.67406 3.73529V13.1632C6.67406 13.3226 6.61076 13.4754 6.4981 13.588C6.38543 13.7007 6.23263 13.764 6.07329 13.764Z" fill="#D8D8D8"/>
<path d="M6.07293 6.59236C5.92488 6.59269 5.78192 6.53834 5.67148 6.43974C5.56104 6.34114 5.4909 6.20522 5.47452 6.05808C5.45813 5.91093 5.49666 5.76292 5.58271 5.64244C5.66876 5.52196 5.79627 5.4375 5.94077 5.40526L15.45 3.25094C15.6054 3.21573 15.7684 3.24369 15.9032 3.32868C16.038 3.41366 16.1335 3.54871 16.1687 3.70411C16.2039 3.85951 16.176 4.02254 16.091 4.15732C16.006 4.2921 15.8709 4.38761 15.7155 4.42282L6.2063 6.57714C6.16257 6.58727 6.11782 6.59238 6.07293 6.59236Z" fill="#D8D8D8"/>
</svg>
