<svg width="18" height="17" viewBox="0 0 18 17" fill="none" xmlns="http://www.w3.org/2000/svg">
<path d="M15.9498 2.75621C15.5589 2.36508 15.0947 2.0548 14.5838 1.84311C14.0729 1.63142 13.5253 1.52246 12.9723 1.52246C12.4193 1.52246 11.8717 1.63142 11.3608 1.84311C10.8499 2.0548 10.3857 2.36508 9.99475 2.75621L9.18339 3.56757L8.37203 2.75621C7.58233 1.96652 6.51128 1.52287 5.39448 1.52287C4.27768 1.52287 3.20663 1.96652 2.41693 2.75621C1.62724 3.5459 1.18359 4.61696 1.18359 5.73376C1.18359 6.85055 1.62724 7.92161 2.41693 8.7113L3.2283 9.52267L9.18339 15.4778L15.1385 9.52267L15.9498 8.7113C16.341 8.32035 16.6513 7.85617 16.8629 7.34527C17.0746 6.83437 17.1836 6.28677 17.1836 5.73376C17.1836 5.18074 17.0746 4.63314 16.8629 4.12224C16.6513 3.61134 16.341 3.14716 15.9498 2.75621V2.75621Z" stroke="#D8D8D8" stroke-width="1.5" stroke-linecap="round" stroke-linejoin="round"/>
</svg>
