<svg width="15" height="17" viewBox="0 0 15 17" fill="none" xmlns="http://www.w3.org/2000/svg">
<path fill-rule="evenodd" clip-rule="evenodd" d="M9.29077 8.50077C9.29077 8.83608 9.01894 9.10791 8.68363 9.10791L0.79077 9.10791C0.455454 9.10791 0.183627 8.83608 0.183627 8.50077C0.183627 8.16545 0.455454 7.89362 0.79077 7.89362L8.68363 7.89362C9.01894 7.89362 9.29077 8.16545 9.29077 8.50077Z" fill="white"/>
<path d="M3.82607 3.03571L3.82607 1.21428L13.5404 1.21429L13.5404 15.7857L3.82607 15.7857L3.82607 13.9643L2.61178 13.9643L2.61178 16.3929C2.61178 16.5539 2.67575 16.7083 2.78961 16.8222C2.90347 16.936 3.0579 17 3.21892 17L14.1475 17C14.3085 17 14.4629 16.936 14.5768 16.8222C14.6907 16.7083 14.7546 16.5539 14.7546 16.3929L14.7546 0.607143C14.7546 0.446117 14.6907 0.291689 14.5768 0.177828C14.463 0.0639667 14.3085 -3.90009e-08 14.1475 -5.30781e-08L3.21893 -1.00848e-06C3.0579 -1.02256e-06 2.90347 0.0639657 2.78961 0.177827C2.67575 0.291688 2.61178 0.446116 2.61178 0.607142L2.61178 3.03571L3.82607 3.03571Z" fill="white"/>
<path fill-rule="evenodd" clip-rule="evenodd" d="M5.82574 11.3581C5.58864 11.121 5.58864 10.7365 5.82574 10.4994L8.25431 8.07086C8.49142 7.83376 8.87584 7.83376 9.11294 8.07086C9.35005 8.30796 9.35005 8.69239 9.11294 8.92949L6.68437 11.3581C6.44727 11.5952 6.06285 11.5952 5.82574 11.3581Z" fill="white"/>
<path fill-rule="evenodd" clip-rule="evenodd" d="M9.11294 8.93008C8.87584 9.16719 8.49142 9.16719 8.25431 8.93008L5.82574 6.50151C5.58864 6.26441 5.58864 5.87999 5.82574 5.64288C6.06285 5.40578 6.44727 5.40578 6.68437 5.64288L9.11294 8.07145C9.35005 8.30856 9.35005 8.69298 9.11294 8.93008Z" fill="white"/>
<path fill-rule="evenodd" clip-rule="evenodd" d="M3.21854 15.179C2.88322 15.179 2.6114 14.9071 2.6114 14.5718L2.6114 13.3575C2.6114 13.0222 2.88322 12.7504 3.21854 12.7504C3.55386 12.7504 3.82568 13.0222 3.82568 13.3575L3.82568 14.5718C3.82568 14.9071 3.55386 15.179 3.21854 15.179Z" fill="white"/>
<path fill-rule="evenodd" clip-rule="evenodd" d="M3.21854 4.25C2.88322 4.25 2.6114 3.97817 2.6114 3.64286L2.6114 2.42857C2.6114 2.09325 2.88322 1.82143 3.21854 1.82143C3.55386 1.82143 3.82568 2.09326 3.82568 2.42857L3.82568 3.64286C3.82568 3.97817 3.55386 4.25 3.21854 4.25Z" fill="white"/>
</svg>
