<svg width="20" height="20" viewBox="0 0 20 20" fill="none" xmlns="http://www.w3.org/2000/svg">
<path fill-rule="evenodd" clip-rule="evenodd" d="M8.5 2C4.91015 2 2 4.91015 2 8.5C2 12.0899 4.91015 15 8.5 15C12.0899 15 15 12.0899 15 8.5C15 4.91015 12.0899 2 8.5 2ZM0 8.5C0 3.80558 3.80558 0 8.5 0C13.1944 0 17 3.80558 17 8.5C17 13.1944 13.1944 17 8.5 17C3.80558 17 0 13.1944 0 8.5Z" fill="#00D1FF"/>
<path fill-rule="evenodd" clip-rule="evenodd" d="M13.0929 13.0929C13.4835 12.7024 14.1166 12.7024 14.5072 13.0929L19.7072 18.2929C20.0977 18.6835 20.0977 19.3166 19.7072 19.7072C19.3166 20.0977 18.6835 20.0977 18.2929 19.7072L13.0929 14.5072C12.7024 14.1166 12.7024 13.4835 13.0929 13.0929Z" fill="#00D1FF"/>
</svg>
